<svg width="650" height="512" viewBox="0 0 650 512" fill="none" xmlns="http://www.w3.org/2000/svg">
<rect width="650" height="512" fill="#1E1E1E"/>
<path d="M239.068 231.982C284.543 231.982 321.407 195.117 321.407 149.642C321.407 104.167 284.543 67.3027 239.068 67.3027C193.593 67.3027 156.728 104.167 156.728 149.642C156.728 195.117 193.593 231.982 239.068 231.982Z" fill="#DBE8EC"/>
<path d="M185.297 122.789H217.6" stroke="#B9D4DB" stroke-width="3" stroke-miterlimit="10" stroke-linecap="round"/>
<path d="M185.297 132.1H217.6" stroke="#B9D4DB" stroke-width="3" stroke-miterlimit="10" stroke-linecap="round"/>
<path d="M185.297 141.41H217.6" stroke="#B9D4DB" stroke-width="3" stroke-miterlimit="10" stroke-linecap="round"/>
<path d="M608.904 269.613V251.422C608.904 247.953 607.526 244.626 605.073 242.173C602.62 239.72 599.294 238.342 595.825 238.342H549.659C547.941 238.342 546.24 238.004 544.653 237.347C543.067 236.689 541.625 235.726 540.41 234.511C539.196 233.297 538.232 231.855 537.575 230.268C536.918 228.681 536.579 226.98 536.579 225.263V207.072C536.579 205.354 536.918 203.653 537.575 202.066C538.232 200.479 539.196 199.038 540.41 197.823C541.625 196.608 543.067 195.645 544.653 194.988C546.24 194.33 547.941 193.992 549.659 193.992H551.116C554.585 193.992 557.912 192.614 560.365 190.161C562.818 187.708 564.196 184.382 564.196 180.913V162.722C564.196 159.253 562.818 155.926 560.365 153.473C557.912 151.02 554.585 149.642 551.116 149.642H129.209C125.74 149.642 122.413 151.02 119.961 153.473C117.508 155.926 116.13 159.253 116.13 162.722V180.913C116.13 184.382 117.508 187.708 119.961 190.161C122.413 192.614 125.74 193.992 129.209 193.992C132.678 193.992 136.005 195.37 138.458 197.823C140.911 200.276 142.289 203.603 142.289 207.072V225.263C142.289 228.732 140.911 232.058 138.458 234.511C136.005 236.964 132.678 238.342 129.209 238.342H78.6298C75.1609 238.342 71.8341 239.72 69.3812 242.173C66.9284 244.626 65.5504 247.953 65.5504 251.422V269.613C65.5504 273.082 66.9284 276.409 69.3812 278.861C71.8341 281.314 75.1609 282.692 78.6298 282.692H98.4764C101.945 282.692 105.272 284.07 107.725 286.523C110.178 288.976 111.556 292.303 111.556 295.772V313.963C111.556 317.432 110.178 320.759 107.725 323.212C105.272 325.664 101.945 327.042 98.4764 327.042H98.4284C94.9595 327.042 91.6327 328.42 89.1799 330.873C86.727 333.326 85.349 336.653 85.349 340.122V358.313C85.349 361.782 86.727 365.109 89.1799 367.562C91.6328 370.014 94.9596 371.392 98.4285 371.392H101.3C103.017 371.392 104.718 371.731 106.305 372.388C107.892 373.045 109.334 374.009 110.548 375.223C111.763 376.438 112.726 377.88 113.384 379.467C114.041 381.053 114.379 382.754 114.379 384.472V402.663C114.379 404.381 114.041 406.082 113.384 407.668C112.726 409.255 111.763 410.697 110.548 411.912C109.334 413.126 107.892 414.09 106.305 414.747C104.718 415.404 103.017 415.743 101.3 415.743H54.1753C50.7064 415.743 47.3796 417.121 44.9268 419.573C42.4739 422.026 41.0959 425.353 41.0959 428.822V447.013C41.0959 448.731 41.4342 450.432 42.0915 452.018C42.7488 453.605 43.7122 455.047 44.9267 456.262C46.1413 457.476 47.5831 458.44 49.17 459.097C50.7569 459.754 52.4577 460.093 54.1753 460.093H558.138C561.607 460.093 564.934 458.715 567.387 456.262C569.84 453.809 571.218 450.482 571.218 447.013V428.822C571.218 425.353 569.84 422.026 567.387 419.573C564.934 417.121 561.607 415.743 558.138 415.743H546.798C545.08 415.743 543.379 415.404 541.792 414.747C540.206 414.09 538.764 413.126 537.549 411.912C536.335 410.697 535.371 409.255 534.714 407.668C534.057 406.082 533.718 404.381 533.718 402.663V384.472C533.718 382.754 534.057 381.053 534.714 379.467C535.371 377.88 536.335 376.438 537.549 375.223C538.764 374.009 540.206 373.045 541.792 372.388C543.379 371.731 545.08 371.392 546.798 371.392H573.538C577.007 371.392 580.333 370.014 582.786 367.562C585.239 365.109 586.617 361.782 586.617 358.313V340.122C586.617 338.404 586.279 336.703 585.621 335.117C584.964 333.53 584.001 332.088 582.786 330.873C581.572 329.659 580.13 328.695 578.543 328.038C576.956 327.381 575.255 327.042 573.538 327.042H565.426C561.957 327.042 558.63 325.664 556.177 323.212C553.725 320.759 552.347 317.432 552.347 313.963V295.772C552.347 292.303 553.725 288.976 556.177 286.523C558.63 284.07 561.957 282.692 565.426 282.692H595.825C599.294 282.692 602.62 281.314 605.073 278.861C607.526 276.409 608.904 273.082 608.904 269.613Z" fill="#DBE8EC"/>
<path d="M468.557 51.9074H217.484C212.514 51.9074 208.484 55.9368 208.484 60.9074V437.467C208.484 442.438 212.514 446.467 217.484 446.467H468.557C473.528 446.467 477.557 442.438 477.557 437.467V60.9074C477.557 55.9368 473.528 51.9074 468.557 51.9074Z" fill="#3086A3"/>
<path d="M452.306 71.2131H233.735C228.765 71.2131 224.735 75.2425 224.735 80.2131V418.162C224.735 423.132 228.765 427.162 233.735 427.162H452.306C457.276 427.162 461.306 423.132 461.306 418.162V80.2131C461.306 75.2425 457.276 71.2131 452.306 71.2131Z" fill="#DBE8EC"/>
<path d="M224.736 377.521V419.62C224.736 420.611 224.931 421.591 225.31 422.506C225.689 423.421 226.244 424.253 226.944 424.953C227.645 425.653 228.476 426.209 229.391 426.588C230.306 426.967 231.287 427.162 232.277 427.162H453.764C454.755 427.162 455.735 426.967 456.65 426.588C457.565 426.209 458.397 425.653 459.097 424.953C459.797 424.253 460.353 423.421 460.732 422.506C461.111 421.591 461.306 420.611 461.306 419.62V377.521H224.736Z" fill="#409CB5"/>
<path d="M461.306 78.7544C461.306 77.764 461.111 76.7834 460.732 75.8684C460.353 74.9535 459.797 74.1221 459.097 73.4219C458.397 72.7216 457.565 72.1661 456.65 71.7871C455.735 71.4081 454.755 71.2131 453.764 71.2131H232.277C231.287 71.2131 230.306 71.4081 229.391 71.7871C228.476 72.1661 227.645 72.7216 226.944 73.4219C226.244 74.1221 225.689 74.9535 225.31 75.8684C224.931 76.7834 224.736 77.764 224.736 78.7544V93.8369H461.306V78.7544Z" fill="#409CB5"/>
<path d="M343.021 83.8824C350.018 83.8824 355.69 78.2102 355.69 71.2131C355.69 64.216 350.018 58.5437 343.021 58.5437C336.024 58.5437 330.351 64.216 330.351 71.2131C330.351 78.2102 336.024 83.8824 343.021 83.8824Z" fill="#F9AE2B"/>
<path d="M343.021 415.011C350.018 415.011 355.69 409.339 355.69 402.341C355.69 395.344 350.018 389.672 343.021 389.672C336.024 389.672 330.351 395.344 330.351 402.341C330.351 409.339 336.024 415.011 343.021 415.011Z" fill="#F9AE2B"/>
<path d="M430.29 101.516H258.242C254.795 101.516 252 104.311 252 107.758V338.929C252 342.377 254.795 345.172 258.242 345.172H430.29C433.738 345.172 436.533 342.377 436.533 338.929V107.758C436.533 104.311 433.738 101.516 430.29 101.516Z" fill="#EE781D"/>
<path d="M343.277 271.107H278.161C276.904 271.107 275.669 270.776 274.58 270.148C273.492 269.519 272.588 268.615 271.959 267.527C271.331 266.438 271 265.203 271 263.946C271 262.689 271.331 261.454 271.959 260.366L304.518 203.973L337.076 147.58C337.704 146.492 338.608 145.588 339.697 144.959C340.786 144.331 342.02 144 343.277 144C344.535 144 345.769 144.331 346.858 144.959C347.947 145.588 348.851 146.492 349.479 147.58L382.037 203.973L414.596 260.366C415.224 261.454 415.555 262.689 415.555 263.946C415.555 265.203 415.224 266.438 414.596 267.527C413.967 268.615 413.063 269.519 411.975 270.148C410.886 270.776 409.651 271.107 408.394 271.107H343.277Z" fill="#F9AE2B"/>
<path d="M343.277 173.808H343.277C341.299 173.808 339.695 175.412 339.695 177.39V230.794C339.695 232.772 341.299 234.376 343.277 234.376H343.277C345.256 234.376 346.86 232.772 346.86 230.794V177.39C346.86 175.412 345.256 173.808 343.277 173.808Z" fill="#409CB5"/>
<path d="M351.806 251.113C352.273 246.403 348.832 242.206 344.122 241.74C339.412 241.273 335.215 244.714 334.749 249.424C334.282 254.134 337.723 258.331 342.433 258.797C347.143 259.264 351.34 255.823 351.806 251.113Z" fill="#409CB5"/>
<path d="M174.052 378.793V355.258C174.053 352.898 174.521 350.562 175.429 348.384C176.337 346.205 177.668 344.229 179.345 342.568C181.021 340.907 183.01 339.595 185.197 338.707C187.383 337.82 189.724 337.374 192.084 337.396H194.047C196.407 337.373 198.748 337.818 200.935 338.705C203.122 339.593 205.111 340.905 206.788 342.566C208.465 344.227 209.796 346.204 210.704 348.382C211.612 350.561 212.079 352.898 212.078 355.258V363.186C212.082 363.718 212.295 364.227 212.67 364.604C213.045 364.981 213.552 365.196 214.084 365.203L223.58 365.246C223.845 365.247 224.108 365.195 224.354 365.095C224.6 364.994 224.823 364.845 225.011 364.658C225.2 364.471 225.349 364.248 225.451 364.003C225.554 363.758 225.606 363.495 225.607 363.229V356.57C225.608 352.485 224.803 348.439 223.239 344.665C221.675 340.891 219.383 337.463 216.492 334.575C213.602 331.688 210.171 329.399 206.395 327.84C202.619 326.28 198.573 325.48 194.488 325.486H191.643C187.559 325.482 183.514 326.284 179.74 327.844C175.966 329.405 172.536 331.694 169.647 334.581C166.758 337.467 164.466 340.895 162.902 344.668C161.339 348.442 160.534 352.486 160.535 356.57V379.422L174.052 378.793Z" fill="#EE781D"/>
<path d="M230.099 446.467C232.476 446.461 234.754 445.515 236.435 443.834C238.115 442.153 239.062 439.875 239.068 437.499V386.49C239.062 384.113 238.115 381.835 236.435 380.155C234.754 378.474 232.476 377.527 230.099 377.521H156.042C153.665 377.527 151.388 378.474 149.707 380.155C148.026 381.835 147.079 384.113 147.074 386.49V437.499C147.079 439.875 148.026 442.153 149.707 443.834C151.388 445.515 153.665 446.461 156.042 446.467H230.099Z" fill="#F9AE2B"/>
<path d="M193.071 395.018C190.525 395.027 188.085 396.042 186.285 397.843C184.485 399.643 183.47 402.083 183.462 404.629C183.506 406.075 183.881 407.491 184.558 408.769C185.236 410.047 186.197 411.153 187.369 412.001V423.279C187.371 424.79 187.972 426.239 189.041 427.306C190.111 428.374 191.56 428.974 193.071 428.974C194.582 428.974 196.031 428.374 197.1 427.306C198.169 426.239 198.771 424.79 198.773 423.279V412.001C199.943 411.151 200.903 410.045 201.58 408.767C202.257 407.49 202.633 406.074 202.679 404.629C202.671 402.083 201.657 399.643 199.856 397.843C198.056 396.042 195.617 395.027 193.071 395.018Z" fill="#EE781D"/>
<path d="M62.0509 428.996H94.3537" stroke="#B9D4DB" stroke-width="3" stroke-miterlimit="10" stroke-linecap="round"/>
<path d="M62.0509 438.306H94.3537" stroke="#B9D4DB" stroke-width="3" stroke-miterlimit="10" stroke-linecap="round"/>
<path d="M62.0509 447.617H94.3537" stroke="#B9D4DB" stroke-width="3" stroke-miterlimit="10" stroke-linecap="round"/>
<path d="M492.833 284.036H525.136" stroke="#B9D4DB" stroke-width="3" stroke-miterlimit="10" stroke-linecap="round"/>
<path d="M492.833 293.346H525.136" stroke="#B9D4DB" stroke-width="3" stroke-miterlimit="10" stroke-linecap="round"/>
<path d="M492.833 302.657H525.136" stroke="#B9D4DB" stroke-width="3" stroke-miterlimit="10" stroke-linecap="round"/>
<path d="M136.379 320.346C145.452 320.346 152.807 312.991 152.807 303.918C152.807 294.845 145.452 287.49 136.379 287.49C127.306 287.49 119.951 294.845 119.951 303.918C119.951 312.991 127.306 320.346 136.379 320.346Z" fill="#B9D4DB"/>
<path d="M137.046 278.98C141.771 278.98 145.603 275.149 145.603 270.423C145.603 265.697 141.771 261.866 137.046 261.866C132.32 261.866 128.488 265.697 128.488 270.423C128.488 275.149 132.32 278.98 137.046 278.98Z" fill="#B9D4DB"/>
<path d="M194.04 282.829C198.131 282.829 201.446 279.513 201.446 275.423C201.446 271.332 198.131 268.017 194.04 268.017C189.95 268.017 186.634 271.332 186.634 275.423C186.634 279.513 189.95 282.829 194.04 282.829Z" fill="#B9D4DB"/>
<path d="M167.096 273.162C169.823 273.162 172.032 270.952 172.032 268.226C172.032 265.5 169.823 263.29 167.096 263.29C164.37 263.29 162.161 265.5 162.161 268.226C162.161 270.952 164.37 273.162 167.096 273.162Z" fill="#B9D4DB"/>
<path d="M172.833 307.001C179.368 307.001 184.665 301.703 184.665 295.168C184.665 288.633 179.368 283.336 172.833 283.336C166.298 283.336 161 288.633 161 295.168C161 301.703 166.298 307.001 172.833 307.001Z" fill="#B9D4DB"/>
<path d="M531.923 442.3C540.996 442.3 548.351 434.945 548.351 425.872C548.351 416.799 540.996 409.444 531.923 409.444C522.85 409.444 515.495 416.799 515.495 425.872C515.495 434.945 522.85 442.3 531.923 442.3Z" fill="#B9D4DB"/>
<path d="M497.151 442.525C501.877 442.525 505.708 438.694 505.708 433.968C505.708 429.242 501.877 425.411 497.151 425.411C492.425 425.411 488.594 429.242 488.594 433.968C488.594 438.694 492.425 442.525 497.151 442.525Z" fill="#B9D4DB"/>
<path d="M497.151 411.162C503.686 411.162 508.984 405.864 508.984 399.329C508.984 392.794 503.686 387.497 497.151 387.497C490.616 387.497 485.319 392.794 485.319 399.329C485.319 405.864 490.616 411.162 497.151 411.162Z" fill="#B9D4DB"/>
<path d="M533.263 150.954C542.336 150.954 549.691 143.599 549.691 134.526C549.691 125.453 542.336 118.098 533.263 118.098C524.19 118.098 516.835 125.453 516.835 134.526C516.835 143.599 524.19 150.954 533.263 150.954Z" fill="#B9D4DB"/>
<path d="M500.676 158.361C504.766 158.361 508.082 155.045 508.082 150.954C508.082 146.864 504.766 143.548 500.676 143.548C496.585 143.548 493.269 146.864 493.269 150.954C493.269 155.045 496.585 158.361 500.676 158.361Z" fill="#B9D4DB"/>
<path d="M491.597 134.526C498.132 134.526 503.429 129.228 503.429 122.693C503.429 116.158 498.132 110.861 491.597 110.861C485.062 110.861 479.764 116.158 479.764 122.693C479.764 129.228 485.062 134.526 491.597 134.526Z" fill="#B9D4DB"/>
</svg>
