<svg width="325" height="323" viewBox="0 0 325 323" fill="none" xmlns="http://www.w3.org/2000/svg">
<rect width="324.262" height="321.738" transform="translate(0.652344 0.316406)" fill="#D9D8D8"/>
<path d="M131.313 205.818V202.889C133.063 203.54 135.041 203.865 137.246 203.865C139.924 203.865 141.262 202.97 141.262 201.18C141.262 199.878 140.44 199.227 138.796 199.227H136.062C132.489 199.227 130.703 197.599 130.703 194.344C130.703 190.763 133.246 188.973 138.333 188.973C140.286 188.973 142.137 189.257 143.887 189.827V192.757C142.137 192.106 140.286 191.78 138.333 191.78C135.403 191.78 133.938 192.635 133.938 194.344C133.938 195.646 134.646 196.297 136.062 196.297H138.796C142.597 196.297 144.497 197.924 144.497 201.18C144.497 204.842 142.08 206.673 137.246 206.673C135.041 206.673 133.063 206.388 131.313 205.818ZM159.194 189.095V191.878H150.454V196.272H158.779V199.166H150.417V203.743H159.365V206.551H147.244V189.095H159.194ZM162.356 206.526V189.095H170.291C173.855 189.095 175.637 190.653 175.637 193.77C175.637 195.878 174.25 197.623 171.475 199.007L177.004 206.551H172.927L167.617 198.946V197.469C170.71 196.94 172.256 195.739 172.256 193.868C172.256 192.582 171.532 191.939 170.083 191.939H165.652V206.526H162.356ZM180.337 206.551H177.017L184.426 189.095H187.905L195.474 206.551H191.995L190.005 201.79H184.207L185.317 198.982H188.833L186.086 192.427L180.337 206.551Z" fill="black"/>
<path d="M27.4267 249.926C27.3736 249.43 27.1502 249.043 26.7562 248.767C26.3661 248.49 25.8585 248.352 25.2335 248.352C24.7941 248.352 24.4172 248.418 24.1028 248.551C23.7884 248.683 23.5479 248.863 23.3812 249.091C23.2145 249.318 23.1293 249.577 23.1255 249.869C23.1255 250.111 23.1805 250.322 23.2903 250.5C23.4039 250.678 23.5574 250.829 23.7505 250.954C23.9437 251.075 24.1577 251.178 24.3926 251.261C24.6274 251.344 24.8642 251.414 25.1028 251.471L26.1937 251.744C26.6331 251.846 27.0555 251.984 27.4608 252.159C27.8699 252.333 28.2354 252.553 28.5574 252.818C28.8831 253.083 29.1407 253.403 29.3301 253.778C29.5195 254.153 29.6142 254.592 29.6142 255.096C29.6142 255.778 29.4399 256.378 29.0914 256.897C28.743 257.413 28.2392 257.816 27.5801 258.108C26.9248 258.395 26.1312 258.539 25.1994 258.539C24.2941 258.539 23.5081 258.399 22.8414 258.119C22.1786 257.839 21.6596 257.43 21.2846 256.892C20.9134 256.354 20.7127 255.699 20.6824 254.926H22.7562C22.7865 255.331 22.9115 255.668 23.1312 255.937C23.3509 256.206 23.6369 256.407 23.9892 256.539C24.3452 256.672 24.743 256.738 25.1824 256.738C25.6407 256.738 26.0422 256.67 26.3869 256.534C26.7354 256.394 27.0081 256.2 27.2051 255.954C27.402 255.704 27.5024 255.413 27.5062 255.079C27.5024 254.776 27.4134 254.526 27.2392 254.329C27.0649 254.128 26.8206 253.962 26.5062 253.829C26.1956 253.693 25.832 253.572 25.4153 253.466L24.0914 253.125C23.1331 252.878 22.3755 252.505 21.8187 252.005C21.2657 251.502 20.9892 250.833 20.9892 250C20.9892 249.314 21.1748 248.714 21.546 248.199C21.921 247.683 22.4305 247.284 23.0744 247C23.7183 246.712 24.4475 246.568 25.2619 246.568C26.0877 246.568 26.8111 246.712 27.4324 247C28.0574 247.284 28.5479 247.68 28.9039 248.187C29.26 248.691 29.4437 249.27 29.4551 249.926H27.4267ZM35.7605 249.636V251.227H30.7434V249.636H35.7605ZM31.9821 247.545H34.0389V255.738C34.0389 256.015 34.0806 256.227 34.1639 256.375C34.251 256.519 34.3646 256.617 34.5048 256.67C34.6449 256.723 34.8002 256.75 34.9707 256.75C35.0995 256.75 35.2169 256.74 35.323 256.721C35.4328 256.702 35.5162 256.685 35.573 256.67L35.9196 258.278C35.8097 258.316 35.6525 258.358 35.448 258.403C35.2472 258.449 35.001 258.475 34.7093 258.483C34.1942 258.498 33.7302 258.42 33.3173 258.25C32.9044 258.075 32.5768 257.806 32.3343 257.443C32.0957 257.079 31.9783 256.625 31.9821 256.079V247.545ZM43.0431 254.693V249.636H45.1V258.363H43.1056V256.812H43.0147C42.8178 257.301 42.4939 257.7 42.0431 258.011C41.5962 258.322 41.045 258.477 40.3897 258.477C39.8178 258.477 39.3121 258.35 38.8727 258.096C38.4371 257.839 38.0962 257.466 37.85 256.977C37.6038 256.484 37.4806 255.89 37.4806 255.193V249.636H39.5375V254.875C39.5375 255.428 39.689 255.867 39.992 256.193C40.295 256.519 40.6928 256.681 41.1852 256.681C41.4882 256.681 41.7818 256.608 42.0659 256.46C42.35 256.312 42.5829 256.092 42.7647 255.801C42.9503 255.505 43.0431 255.136 43.0431 254.693ZM50.4537 258.517C49.7681 258.517 49.1544 258.341 48.6127 257.988C48.0711 257.636 47.6431 257.125 47.3287 256.454C47.0143 255.784 46.8571 254.969 46.8571 254.011C46.8571 253.041 47.0162 252.223 47.3343 251.556C47.6563 250.886 48.09 250.38 48.6355 250.039C49.1809 249.695 49.7889 249.522 50.4593 249.522C50.9707 249.522 51.3912 249.609 51.7207 249.784C52.0502 249.954 52.3116 250.161 52.5048 250.403C52.698 250.642 52.8476 250.867 52.9537 251.079H53.0389V246.727H55.1014V258.363H53.0787V256.988H52.9537C52.8476 257.2 52.6942 257.426 52.4934 257.664C52.2927 257.899 52.0275 258.1 51.698 258.267C51.3684 258.433 50.9537 258.517 50.4537 258.517ZM51.0275 256.829C51.4631 256.829 51.8343 256.712 52.1412 256.477C52.448 256.238 52.6809 255.907 52.84 255.483C52.9991 255.058 53.0787 254.564 53.0787 254C53.0787 253.435 52.9991 252.945 52.84 252.528C52.6847 252.111 52.4537 251.788 52.1468 251.556C51.8438 251.325 51.4707 251.21 51.0275 251.21C50.5692 251.21 50.1866 251.329 49.8798 251.568C49.573 251.806 49.3419 252.136 49.1866 252.556C49.0313 252.977 48.9537 253.458 48.9537 254C48.9537 254.545 49.0313 255.032 49.1866 255.46C49.3457 255.884 49.5787 256.219 49.8855 256.466C50.1961 256.708 50.5768 256.829 51.0275 256.829ZM61.1568 258.534C60.2818 258.534 59.5261 258.352 58.8897 257.988C58.2572 257.621 57.7704 257.102 57.4295 256.431C57.0886 255.757 56.9181 254.964 56.9181 254.051C56.9181 253.153 57.0886 252.365 57.4295 251.687C57.7742 251.005 58.2553 250.475 58.8727 250.096C59.4901 249.714 60.2155 249.522 61.0488 249.522C61.5867 249.522 62.0943 249.609 62.5716 249.784C63.0526 249.954 63.4769 250.219 63.8443 250.579C64.2155 250.939 64.5072 251.397 64.7193 251.954C64.9314 252.507 65.0375 253.166 65.0375 253.931V254.562H57.8841V253.176H63.0659C63.0621 252.782 62.9769 252.431 62.8102 252.125C62.6435 251.814 62.4106 251.57 62.1113 251.392C61.8159 251.214 61.4712 251.125 61.0772 251.125C60.6568 251.125 60.2875 251.227 59.9693 251.431C59.6511 251.632 59.403 251.897 59.225 252.227C59.0507 252.553 58.9617 252.911 58.9579 253.301V254.511C58.9579 255.019 59.0507 255.454 59.2363 255.818C59.4219 256.178 59.6814 256.454 60.0147 256.647C60.3481 256.837 60.7382 256.931 61.1852 256.931C61.4844 256.931 61.7553 256.89 61.9977 256.806C62.2401 256.719 62.4503 256.592 62.6284 256.426C62.8064 256.259 62.9409 256.053 63.0318 255.806L64.9522 256.022C64.831 256.53 64.6 256.973 64.2591 257.352C63.9219 257.727 63.4901 258.019 62.9636 258.227C62.4371 258.431 61.8348 258.534 61.1568 258.534ZM68.8343 253.25V258.363H66.7775V249.636H68.7434V251.119H68.8457C69.0465 250.63 69.3665 250.242 69.8059 249.954C70.2491 249.666 70.7965 249.522 71.448 249.522C72.0502 249.522 72.5749 249.651 73.0218 249.909C73.4726 250.166 73.8211 250.539 74.0673 251.028C74.3173 251.517 74.4404 252.109 74.4366 252.806V258.363H72.3798V253.125C72.3798 252.541 72.2283 252.085 71.9252 251.755C71.626 251.426 71.2112 251.261 70.6809 251.261C70.3211 251.261 70.001 251.341 69.7207 251.5C69.4442 251.655 69.2264 251.88 69.0673 252.176C68.912 252.471 68.8343 252.829 68.8343 253.25ZM80.8855 249.636V251.227H75.8684V249.636H80.8855ZM77.1071 247.545H79.1639V255.738C79.1639 256.015 79.2056 256.227 79.2889 256.375C79.376 256.519 79.4896 256.617 79.6298 256.67C79.7699 256.723 79.9252 256.75 80.0957 256.75C80.2245 256.75 80.3419 256.74 80.448 256.721C80.5578 256.702 80.6412 256.685 80.698 256.67L81.0446 258.278C80.9347 258.316 80.7775 258.358 80.573 258.403C80.3722 258.449 80.126 258.475 79.8343 258.483C79.3192 258.498 78.8552 258.42 78.4423 258.25C78.0294 258.075 77.7018 257.806 77.4593 257.443C77.2207 257.079 77.1033 256.625 77.1071 256.079V247.545ZM86.6653 258.363V246.727H94.2335V248.494H88.7733V251.653H93.8414V253.42H88.7733V256.596H94.2789V258.363H86.6653ZM98.8045 258.539C98.2515 258.539 97.7534 258.441 97.3102 258.244C96.8708 258.043 96.5223 257.748 96.2647 257.358C96.0109 256.967 95.8841 256.486 95.8841 255.914C95.8841 255.422 95.975 255.015 96.1568 254.693C96.3386 254.371 96.5867 254.113 96.9011 253.92C97.2155 253.727 97.5697 253.581 97.9636 253.483C98.3613 253.38 98.7723 253.306 99.1966 253.261C99.7079 253.208 100.123 253.161 100.441 253.119C100.759 253.074 100.99 253.005 101.134 252.914C101.282 252.82 101.356 252.674 101.356 252.477V252.443C101.356 252.015 101.229 251.683 100.975 251.449C100.721 251.214 100.356 251.096 99.8784 251.096C99.3746 251.096 98.975 251.206 98.6795 251.426C98.3878 251.645 98.1909 251.905 98.0886 252.204L96.1681 251.931C96.3197 251.401 96.5697 250.958 96.9181 250.602C97.2666 250.242 97.6928 249.973 98.1966 249.795C98.7003 249.613 99.2572 249.522 99.867 249.522C100.287 249.522 100.706 249.572 101.123 249.67C101.539 249.769 101.92 249.931 102.265 250.159C102.609 250.382 102.886 250.687 103.094 251.074C103.306 251.46 103.412 251.943 103.412 252.522V258.363H101.435V257.164H101.367C101.242 257.407 101.066 257.634 100.839 257.846C100.615 258.055 100.333 258.223 99.992 258.352C99.6549 258.477 99.2591 258.539 98.8045 258.539ZM99.3386 257.028C99.7515 257.028 100.109 256.947 100.412 256.784C100.715 256.617 100.948 256.397 101.111 256.125C101.278 255.852 101.361 255.555 101.361 255.233V254.204C101.297 254.257 101.187 254.306 101.032 254.352C100.88 254.397 100.71 254.437 100.52 254.471C100.331 254.505 100.144 254.536 99.9579 254.562C99.7723 254.589 99.6113 254.611 99.475 254.63C99.1681 254.672 98.8935 254.74 98.6511 254.835C98.4087 254.93 98.2174 255.062 98.0772 255.233C97.9371 255.399 97.867 255.615 97.867 255.88C97.867 256.259 98.0053 256.545 98.2818 256.738C98.5583 256.931 98.9106 257.028 99.3386 257.028ZM112.378 251.943L110.503 252.147C110.45 251.958 110.358 251.78 110.225 251.613C110.096 251.447 109.922 251.312 109.702 251.21C109.483 251.108 109.214 251.056 108.895 251.056C108.467 251.056 108.108 251.149 107.816 251.335C107.528 251.52 107.386 251.761 107.39 252.056C107.386 252.31 107.479 252.517 107.668 252.676C107.861 252.835 108.18 252.966 108.623 253.068L110.111 253.386C110.937 253.564 111.551 253.846 111.952 254.233C112.358 254.619 112.562 255.125 112.566 255.75C112.562 256.299 112.401 256.784 112.083 257.204C111.769 257.621 111.331 257.947 110.77 258.181C110.21 258.416 109.566 258.534 108.839 258.534C107.77 258.534 106.911 258.31 106.259 257.863C105.608 257.413 105.219 256.786 105.094 255.983L107.1 255.789C107.191 256.183 107.384 256.481 107.68 256.681C107.975 256.882 108.359 256.983 108.833 256.983C109.322 256.983 109.714 256.882 110.009 256.681C110.308 256.481 110.458 256.233 110.458 255.937C110.458 255.687 110.361 255.481 110.168 255.318C109.979 255.155 109.683 255.03 109.282 254.943L107.793 254.63C106.956 254.456 106.337 254.163 105.935 253.75C105.534 253.333 105.335 252.806 105.339 252.17C105.335 251.632 105.481 251.166 105.776 250.772C106.075 250.375 106.49 250.068 107.02 249.852C107.555 249.632 108.17 249.522 108.867 249.522C109.89 249.522 110.695 249.74 111.282 250.176C111.873 250.611 112.238 251.2 112.378 251.943ZM115.54 261.636C115.26 261.636 115.001 261.613 114.762 261.568C114.527 261.526 114.34 261.477 114.199 261.42L114.677 259.818C114.976 259.905 115.243 259.947 115.478 259.943C115.713 259.939 115.919 259.865 116.097 259.721C116.279 259.581 116.432 259.346 116.557 259.017L116.733 258.545L113.569 249.636H115.751L117.762 256.227H117.853L119.87 249.636H122.057L118.563 259.42C118.4 259.882 118.184 260.278 117.915 260.608C117.646 260.941 117.317 261.195 116.927 261.369C116.54 261.547 116.078 261.636 115.54 261.636ZM123.481 261.636V249.636H125.503V251.079H125.623C125.729 250.867 125.878 250.642 126.072 250.403C126.265 250.161 126.526 249.954 126.856 249.784C127.185 249.609 127.606 249.522 128.117 249.522C128.791 249.522 129.399 249.695 129.941 250.039C130.486 250.38 130.918 250.886 131.236 251.556C131.558 252.223 131.719 253.041 131.719 254.011C131.719 254.969 131.562 255.784 131.248 256.454C130.933 257.125 130.505 257.636 129.964 257.988C129.422 258.341 128.808 258.517 128.123 258.517C127.623 258.517 127.208 258.433 126.878 258.267C126.549 258.1 126.284 257.899 126.083 257.664C125.886 257.426 125.733 257.2 125.623 256.988H125.537V261.636H123.481ZM125.498 254C125.498 254.564 125.577 255.058 125.736 255.483C125.899 255.907 126.132 256.238 126.435 256.477C126.742 256.712 127.113 256.829 127.549 256.829C128.003 256.829 128.384 256.708 128.691 256.466C128.998 256.219 129.229 255.884 129.384 255.46C129.543 255.032 129.623 254.545 129.623 254C129.623 253.458 129.545 252.977 129.39 252.556C129.234 252.136 129.003 251.806 128.697 251.568C128.39 251.329 128.007 251.21 127.549 251.21C127.109 251.21 126.736 251.325 126.43 251.556C126.123 251.788 125.89 252.111 125.731 252.528C125.575 252.945 125.498 253.435 125.498 254ZM135.992 258.539C135.439 258.539 134.941 258.441 134.498 258.244C134.058 258.043 133.71 257.748 133.452 257.358C133.198 256.967 133.072 256.486 133.072 255.914C133.072 255.422 133.162 255.015 133.344 254.693C133.526 254.371 133.774 254.113 134.089 253.92C134.403 253.727 134.757 253.581 135.151 253.483C135.549 253.38 135.96 253.306 136.384 253.261C136.895 253.208 137.31 253.161 137.628 253.119C137.947 253.074 138.178 253.005 138.322 252.914C138.469 252.82 138.543 252.674 138.543 252.477V252.443C138.543 252.015 138.416 251.683 138.162 251.449C137.909 251.214 137.543 251.096 137.066 251.096C136.562 251.096 136.162 251.206 135.867 251.426C135.575 251.645 135.378 251.905 135.276 252.204L133.356 251.931C133.507 251.401 133.757 250.958 134.106 250.602C134.454 250.242 134.88 249.973 135.384 249.795C135.888 249.613 136.445 249.522 137.055 249.522C137.475 249.522 137.894 249.572 138.31 249.67C138.727 249.769 139.108 249.931 139.452 250.159C139.797 250.382 140.073 250.687 140.282 251.074C140.494 251.46 140.6 251.943 140.6 252.522V258.363H138.623V257.164H138.555C138.43 257.407 138.253 257.634 138.026 257.846C137.803 258.055 137.52 258.223 137.18 258.352C136.842 258.477 136.447 258.539 135.992 258.539ZM136.526 257.028C136.939 257.028 137.297 256.947 137.6 256.784C137.903 256.617 138.136 256.397 138.299 256.125C138.465 255.852 138.549 255.555 138.549 255.233V254.204C138.484 254.257 138.375 254.306 138.219 254.352C138.068 254.397 137.897 254.437 137.708 254.471C137.519 254.505 137.331 254.536 137.145 254.562C136.96 254.589 136.799 254.611 136.662 254.63C136.356 254.672 136.081 254.74 135.839 254.835C135.596 254.93 135.405 255.062 135.265 255.233C135.125 255.399 135.055 255.615 135.055 255.88C135.055 256.259 135.193 256.545 135.469 256.738C135.746 256.931 136.098 257.028 136.526 257.028ZM143.634 261.636C143.354 261.636 143.094 261.613 142.856 261.568C142.621 261.526 142.433 261.477 142.293 261.42L142.77 259.818C143.07 259.905 143.337 259.947 143.572 259.943C143.806 259.939 144.013 259.865 144.191 259.721C144.373 259.581 144.526 259.346 144.651 259.017L144.827 258.545L141.662 249.636H143.844L145.856 256.227H145.947L147.964 249.636H150.151L146.657 259.42C146.494 259.882 146.278 260.278 146.009 260.608C145.74 260.941 145.411 261.195 145.02 261.369C144.634 261.547 144.172 261.636 143.634 261.636ZM158.055 258.539C157.501 258.539 157.003 258.441 156.56 258.244C156.121 258.043 155.772 257.748 155.515 257.358C155.261 256.967 155.134 256.486 155.134 255.914C155.134 255.422 155.225 255.015 155.407 254.693C155.589 254.371 155.837 254.113 156.151 253.92C156.465 253.727 156.82 253.581 157.214 253.483C157.611 253.38 158.022 253.306 158.447 253.261C158.958 253.208 159.373 253.161 159.691 253.119C160.009 253.074 160.24 253.005 160.384 252.914C160.532 252.82 160.606 252.674 160.606 252.477V252.443C160.606 252.015 160.479 251.683 160.225 251.449C159.971 251.214 159.606 251.096 159.128 251.096C158.625 251.096 158.225 251.206 157.93 251.426C157.638 251.645 157.441 251.905 157.339 252.204L155.418 251.931C155.57 251.401 155.82 250.958 156.168 250.602C156.517 250.242 156.943 249.973 157.447 249.795C157.95 249.613 158.507 249.522 159.117 249.522C159.537 249.522 159.956 249.572 160.373 249.67C160.789 249.769 161.17 249.931 161.515 250.159C161.859 250.382 162.136 250.687 162.344 251.074C162.556 251.46 162.662 251.943 162.662 252.522V258.363H160.685V257.164H160.617C160.492 257.407 160.316 257.634 160.089 257.846C159.865 258.055 159.583 258.223 159.242 258.352C158.905 258.477 158.509 258.539 158.055 258.539ZM158.589 257.028C159.001 257.028 159.359 256.947 159.662 256.784C159.965 256.617 160.198 256.397 160.361 256.125C160.528 255.852 160.611 255.555 160.611 255.233V254.204C160.547 254.257 160.437 254.306 160.282 254.352C160.13 254.397 159.96 254.437 159.77 254.471C159.581 254.505 159.394 254.536 159.208 254.562C159.022 254.589 158.861 254.611 158.725 254.63C158.418 254.672 158.144 254.74 157.901 254.835C157.659 254.93 157.467 255.062 157.327 255.233C157.187 255.399 157.117 255.615 157.117 255.88C157.117 256.259 157.255 256.545 157.532 256.738C157.808 256.931 158.161 257.028 158.589 257.028ZM166.787 253.25V258.363H164.731V249.636H166.697V251.119H166.799C167 250.63 167.32 250.242 167.759 249.954C168.202 249.666 168.75 249.522 169.401 249.522C170.003 249.522 170.528 249.651 170.975 249.909C171.426 250.166 171.774 250.539 172.02 251.028C172.27 251.517 172.394 252.109 172.39 252.806V258.363H170.333V253.125C170.333 252.541 170.181 252.085 169.878 251.755C169.579 251.426 169.164 251.261 168.634 251.261C168.274 251.261 167.954 251.341 167.674 251.5C167.397 251.655 167.18 251.88 167.02 252.176C166.865 252.471 166.787 252.829 166.787 253.25ZM177.719 258.517C177.034 258.517 176.42 258.341 175.878 257.988C175.337 257.636 174.909 257.125 174.594 256.454C174.28 255.784 174.123 254.969 174.123 254.011C174.123 253.041 174.282 252.223 174.6 251.556C174.922 250.886 175.356 250.38 175.901 250.039C176.447 249.695 177.055 249.522 177.725 249.522C178.236 249.522 178.657 249.609 178.986 249.784C179.316 249.954 179.577 250.161 179.77 250.403C179.964 250.642 180.113 250.867 180.219 251.079H180.305V246.727H182.367V258.363H180.344V256.988H180.219C180.113 257.2 179.96 257.426 179.759 257.664C179.558 257.899 179.293 258.1 178.964 258.267C178.634 258.433 178.219 258.517 177.719 258.517ZM178.293 256.829C178.729 256.829 179.1 256.712 179.407 256.477C179.714 256.238 179.947 255.907 180.106 255.483C180.265 255.058 180.344 254.564 180.344 254C180.344 253.435 180.265 252.945 180.106 252.528C179.95 252.111 179.719 251.788 179.412 251.556C179.109 251.325 178.736 251.21 178.293 251.21C177.835 251.21 177.452 251.329 177.145 251.568C176.839 251.806 176.608 252.136 176.452 252.556C176.297 252.977 176.219 253.458 176.219 254C176.219 254.545 176.297 255.032 176.452 255.46C176.611 255.884 176.844 256.219 177.151 256.466C177.462 256.708 177.842 256.829 178.293 256.829ZM188.618 258.363V246.727H192.982C193.876 246.727 194.626 246.882 195.232 247.193C195.842 247.503 196.302 247.939 196.613 248.5C196.927 249.056 197.084 249.706 197.084 250.449C197.084 251.195 196.925 251.842 196.607 252.392C196.293 252.937 195.829 253.359 195.215 253.659C194.601 253.954 193.848 254.102 192.954 254.102H189.846V252.352H192.67C193.192 252.352 193.62 252.28 193.954 252.136C194.287 251.988 194.533 251.774 194.692 251.494C194.855 251.21 194.937 250.861 194.937 250.449C194.937 250.036 194.855 249.683 194.692 249.392C194.529 249.096 194.281 248.873 193.948 248.721C193.615 248.566 193.185 248.488 192.658 248.488H190.726V258.363H188.618ZM194.63 253.091L197.51 258.363H195.158L192.329 253.091H194.63ZM202.672 258.534C201.797 258.534 201.042 258.352 200.405 257.988C199.773 257.621 199.286 257.102 198.945 256.431C198.604 255.757 198.434 254.964 198.434 254.051C198.434 253.153 198.604 252.365 198.945 251.687C199.29 251.005 199.771 250.475 200.388 250.096C201.006 249.714 201.731 249.522 202.564 249.522C203.102 249.522 203.61 249.609 204.087 249.784C204.568 249.954 204.992 250.219 205.36 250.579C205.731 250.939 206.023 251.397 206.235 251.954C206.447 252.507 206.553 253.166 206.553 253.931V254.562H199.4V253.176H204.581C204.578 252.782 204.492 252.431 204.326 252.125C204.159 251.814 203.926 251.57 203.627 251.392C203.331 251.214 202.987 251.125 202.593 251.125C202.172 251.125 201.803 251.227 201.485 251.431C201.167 251.632 200.919 251.897 200.741 252.227C200.566 252.553 200.477 252.911 200.474 253.301V254.511C200.474 255.019 200.566 255.454 200.752 255.818C200.938 256.178 201.197 256.454 201.53 256.647C201.864 256.837 202.254 256.931 202.701 256.931C203 256.931 203.271 256.89 203.513 256.806C203.756 256.719 203.966 256.592 204.144 256.426C204.322 256.259 204.456 256.053 204.547 255.806L206.468 256.022C206.347 256.53 206.116 256.973 205.775 257.352C205.438 257.727 205.006 258.019 204.479 258.227C203.953 258.431 203.35 258.534 202.672 258.534ZM215.191 251.943L213.316 252.147C213.263 251.958 213.17 251.78 213.037 251.613C212.909 251.447 212.734 251.312 212.515 251.21C212.295 251.108 212.026 251.056 211.708 251.056C211.28 251.056 210.92 251.149 210.628 251.335C210.34 251.52 210.198 251.761 210.202 252.056C210.198 252.31 210.291 252.517 210.481 252.676C210.674 252.835 210.992 252.966 211.435 253.068L212.924 253.386C213.75 253.564 214.363 253.846 214.765 254.233C215.17 254.619 215.375 255.125 215.378 255.75C215.375 256.299 215.214 256.784 214.895 257.204C214.581 257.621 214.144 257.947 213.583 258.181C213.022 258.416 212.378 258.534 211.651 258.534C210.583 258.534 209.723 258.31 209.072 257.863C208.42 257.413 208.032 256.786 207.907 255.983L209.912 255.789C210.003 256.183 210.197 256.481 210.492 256.681C210.787 256.882 211.172 256.983 211.645 256.983C212.134 256.983 212.526 256.882 212.822 256.681C213.121 256.481 213.27 256.233 213.27 255.937C213.27 255.687 213.174 255.481 212.981 255.318C212.791 255.155 212.496 255.03 212.094 254.943L210.606 254.63C209.769 254.456 209.149 254.163 208.748 253.75C208.346 253.333 208.147 252.806 208.151 252.17C208.147 251.632 208.293 251.166 208.589 250.772C208.888 250.375 209.303 250.068 209.833 249.852C210.367 249.632 210.983 249.522 211.68 249.522C212.702 249.522 213.507 249.74 214.094 250.176C214.685 250.611 215.051 251.2 215.191 251.943ZM222.637 254.693V249.636H224.694V258.363H222.699V256.812H222.608C222.412 257.301 222.088 257.7 221.637 258.011C221.19 258.322 220.639 258.477 219.983 258.477C219.412 258.477 218.906 258.35 218.466 258.096C218.031 257.839 217.69 257.466 217.444 256.977C217.198 256.484 217.074 255.89 217.074 255.193V249.636H219.131V254.875C219.131 255.428 219.283 255.867 219.586 256.193C219.889 256.519 220.287 256.681 220.779 256.681C221.082 256.681 221.376 256.608 221.66 256.46C221.944 256.312 222.177 256.092 222.358 255.801C222.544 255.505 222.637 255.136 222.637 254.693ZM228.866 246.727V258.363H226.809V246.727H228.866ZM235.339 249.636V251.227H230.322V249.636H235.339ZM231.56 247.545H233.617V255.738C233.617 256.015 233.659 256.227 233.742 256.375C233.829 256.519 233.943 256.617 234.083 256.67C234.223 256.723 234.378 256.75 234.549 256.75C234.678 256.75 234.795 256.74 234.901 256.721C235.011 256.702 235.094 256.685 235.151 256.67L235.498 258.278C235.388 258.316 235.231 258.358 235.026 258.403C234.825 258.449 234.579 258.475 234.287 258.483C233.772 258.498 233.308 258.42 232.895 258.25C232.483 258.075 232.155 257.806 231.912 257.443C231.674 257.079 231.556 256.625 231.56 256.079V247.545ZM242.613 258.363H240.363L244.459 246.727H247.062L251.164 258.363H248.914L245.806 249.113H245.715L242.613 258.363ZM242.687 253.801H248.823V255.494H242.687V253.801ZM254.662 253.25V258.363H252.606V249.636H254.572V251.119H254.674C254.875 250.63 255.195 250.242 255.634 249.954C256.077 249.666 256.625 249.522 257.276 249.522C257.878 249.522 258.403 249.651 258.85 249.909C259.301 250.166 259.649 250.539 259.895 251.028C260.145 251.517 260.269 252.109 260.265 252.806V258.363H258.208V253.125C258.208 252.541 258.056 252.085 257.753 251.755C257.454 251.426 257.039 251.261 256.509 251.261C256.149 251.261 255.829 251.341 255.549 251.5C255.272 251.655 255.055 251.88 254.895 252.176C254.74 252.471 254.662 252.829 254.662 253.25ZM264.867 258.539C264.314 258.539 263.816 258.441 263.373 258.244C262.933 258.043 262.585 257.748 262.327 257.358C262.073 256.967 261.947 256.486 261.947 255.914C261.947 255.422 262.037 255.015 262.219 254.693C262.401 254.371 262.649 254.113 262.964 253.92C263.278 253.727 263.632 253.581 264.026 253.483C264.424 253.38 264.835 253.306 265.259 253.261C265.77 253.208 266.185 253.161 266.503 253.119C266.822 253.074 267.053 253.005 267.197 252.914C267.344 252.82 267.418 252.674 267.418 252.477V252.443C267.418 252.015 267.291 251.683 267.037 251.449C266.784 251.214 266.418 251.096 265.941 251.096C265.437 251.096 265.037 251.206 264.742 251.426C264.45 251.645 264.253 251.905 264.151 252.204L262.231 251.931C262.382 251.401 262.632 250.958 262.981 250.602C263.329 250.242 263.755 249.973 264.259 249.795C264.763 249.613 265.32 249.522 265.93 249.522C266.35 249.522 266.769 249.572 267.185 249.67C267.602 249.769 267.983 249.931 268.327 250.159C268.672 250.382 268.948 250.687 269.157 251.074C269.369 251.46 269.475 251.943 269.475 252.522V258.363H267.498V257.164H267.43C267.305 257.407 267.128 257.634 266.901 257.846C266.678 258.055 266.395 258.223 266.055 258.352C265.717 258.477 265.322 258.539 264.867 258.539ZM265.401 257.028C265.814 257.028 266.172 256.947 266.475 256.784C266.778 256.617 267.011 256.397 267.174 256.125C267.34 255.852 267.424 255.555 267.424 255.233V254.204C267.359 254.257 267.25 254.306 267.094 254.352C266.943 254.397 266.772 254.437 266.583 254.471C266.394 254.505 266.206 254.536 266.02 254.562C265.835 254.589 265.674 254.611 265.537 254.63C265.231 254.672 264.956 254.74 264.714 254.835C264.471 254.93 264.28 255.062 264.14 255.233C264 255.399 263.93 255.615 263.93 255.88C263.93 256.259 264.068 256.545 264.344 256.738C264.621 256.931 264.973 257.028 265.401 257.028ZM273.6 246.727V258.363H271.543V246.727H273.6ZM276.993 261.636C276.713 261.636 276.454 261.613 276.215 261.568C275.98 261.526 275.793 261.477 275.653 261.42L276.13 259.818C276.429 259.905 276.696 259.947 276.931 259.943C277.166 259.939 277.372 259.865 277.55 259.721C277.732 259.581 277.885 259.346 278.01 259.017L278.187 258.545L275.022 249.636H277.204L279.215 256.227H279.306L281.323 249.636H283.51L280.016 259.42C279.853 259.882 279.637 260.278 279.368 260.608C279.099 260.941 278.77 261.195 278.38 261.369C277.993 261.547 277.531 261.636 276.993 261.636ZM291.831 251.943L289.956 252.147C289.903 251.958 289.811 251.78 289.678 251.613C289.549 251.447 289.375 251.312 289.155 251.21C288.936 251.108 288.667 251.056 288.349 251.056C287.921 251.056 287.561 251.149 287.269 251.335C286.981 251.52 286.839 251.761 286.843 252.056C286.839 252.31 286.932 252.517 287.121 252.676C287.314 252.835 287.633 252.966 288.076 253.068L289.564 253.386C290.39 253.564 291.004 253.846 291.405 254.233C291.811 254.619 292.015 255.125 292.019 255.75C292.015 256.299 291.854 256.784 291.536 257.204C291.222 257.621 290.784 257.947 290.224 258.181C289.663 258.416 289.019 258.534 288.292 258.534C287.224 258.534 286.364 258.31 285.712 257.863C285.061 257.413 284.672 256.786 284.547 255.983L286.553 255.789C286.644 256.183 286.837 256.481 287.133 256.681C287.428 256.882 287.813 256.983 288.286 256.983C288.775 256.983 289.167 256.882 289.462 256.681C289.761 256.481 289.911 256.233 289.911 255.937C289.911 255.687 289.814 255.481 289.621 255.318C289.432 255.155 289.136 255.03 288.735 254.943L287.246 254.63C286.409 254.456 285.79 254.163 285.388 253.75C284.987 253.333 284.788 252.806 284.792 252.17C284.788 251.632 284.934 251.166 285.229 250.772C285.528 250.375 285.943 250.068 286.474 249.852C287.008 249.632 287.623 249.522 288.32 249.522C289.343 249.522 290.148 249.74 290.735 250.176C291.326 250.611 291.691 251.2 291.831 251.943ZM293.715 258.363V249.636H295.772V258.363H293.715ZM294.749 248.397C294.423 248.397 294.143 248.289 293.908 248.074C293.673 247.854 293.556 247.591 293.556 247.284C293.556 246.973 293.673 246.71 293.908 246.494C294.143 246.274 294.423 246.164 294.749 246.164C295.079 246.164 295.359 246.274 295.59 246.494C295.825 246.71 295.942 246.973 295.942 247.284C295.942 247.591 295.825 247.854 295.59 248.074C295.359 248.289 295.079 248.397 294.749 248.397ZM304.785 251.943L302.91 252.147C302.857 251.958 302.764 251.78 302.631 251.613C302.502 251.447 302.328 251.312 302.108 251.21C301.889 251.108 301.62 251.056 301.302 251.056C300.874 251.056 300.514 251.149 300.222 251.335C299.934 251.52 299.792 251.761 299.796 252.056C299.792 252.31 299.885 252.517 300.074 252.676C300.268 252.835 300.586 252.966 301.029 253.068L302.518 253.386C303.343 253.564 303.957 253.846 304.358 254.233C304.764 254.619 304.968 255.125 304.972 255.75C304.968 256.299 304.807 256.784 304.489 257.204C304.175 257.621 303.737 257.947 303.177 258.181C302.616 258.416 301.972 258.534 301.245 258.534C300.177 258.534 299.317 258.31 298.665 257.863C298.014 257.413 297.626 256.786 297.501 255.983L299.506 255.789C299.597 256.183 299.79 256.481 300.086 256.681C300.381 256.882 300.766 256.983 301.239 256.983C301.728 256.983 302.12 256.882 302.415 256.681C302.715 256.481 302.864 256.233 302.864 255.937C302.864 255.687 302.768 255.481 302.574 255.318C302.385 255.155 302.09 255.03 301.688 254.943L300.199 254.63C299.362 254.456 298.743 254.163 298.341 253.75C297.94 253.333 297.741 252.806 297.745 252.17C297.741 251.632 297.887 251.166 298.182 250.772C298.482 250.375 298.896 250.068 299.427 249.852C299.961 249.632 300.576 249.522 301.273 249.522C302.296 249.522 303.101 249.74 303.688 250.176C304.279 250.611 304.644 251.2 304.785 251.943Z" fill="black"/>
<g clip-path="url(#clip0_1_2)">
<path d="M68.5281 87.6852C68.2791 87.7477 67.3028 88.0724 67.0539 88.1349C66.7681 88.207 66.5174 88.3775 66.3465 88.6159C66.1756 88.8543 66.0957 89.1452 66.1209 89.4367C66.121 89.444 66.1217 89.4513 66.1229 89.4585C66.1499 89.7739 66.298 90.0668 66.5367 90.2768C66.7753 90.4868 67.0861 90.5977 67.4048 90.5867C68.5298 90.548 69.6551 90.509 70.7808 90.4696C72.2864 89.776 73.0032 89.209 72.9314 88.7685C72.8366 88.1871 71.3689 87.826 68.5281 87.6852Z" fill="#FFC166"/>
<path d="M72.6732 89.1547L69.8798 91.0749C69.6087 91.2567 69.4134 91.53 69.3303 91.8441C69.2471 92.1581 69.2818 92.4914 69.4278 92.7819C69.5738 93.0725 69.8212 93.3006 70.1239 93.4237C70.4267 93.5468 70.7643 93.5565 71.0738 93.4512L75.8867 91.817C75.9609 91.5293 76.0753 90.8972 75.7657 90.2877C75.2947 89.3607 74.0303 88.8538 72.6732 89.1546V89.1547Z" fill="#FFC570"/>
<path d="M104.449 90.1362H76.3077C74.6509 90.1362 73.3078 91.4689 73.3078 93.1128V107.395C73.3078 109.039 74.6509 110.371 76.3077 110.371H104.449C106.106 110.371 107.449 109.039 107.449 107.395V93.1128C107.449 91.4689 106.106 90.1362 104.449 90.1362Z" fill="#79ED97"/>
<path d="M104.449 90.1363H102.949C103.745 90.1363 104.508 90.4499 105.07 91.0082C105.633 91.5664 105.949 92.3235 105.949 93.1129V107.395C105.949 108.184 105.633 108.941 105.07 109.499C104.508 110.058 103.745 110.371 102.949 110.371H104.449C105.245 110.371 106.008 110.058 106.57 109.499C107.133 108.941 107.449 108.184 107.449 107.395V93.1129C107.449 92.3235 107.133 91.5664 106.57 91.0082C106.008 90.4499 105.245 90.1363 104.449 90.1363Z" fill="#63EA86"/>
<path d="M76.3077 105.212V95.2958C76.8912 95.2958 77.4507 95.0658 77.8633 94.6564C78.2759 94.2471 78.5077 93.6919 78.5077 93.1129H102.249C102.249 93.6919 102.481 94.2471 102.894 94.6564C103.306 95.0658 103.866 95.2958 104.449 95.2958V105.212C103.866 105.212 103.306 105.442 102.894 105.851C102.481 106.261 102.249 106.816 102.249 107.395H78.5077C78.5077 106.816 78.2759 106.261 77.8633 105.851C77.4507 105.442 76.8912 105.212 76.3077 105.212Z" fill="white"/>
<path d="M102.249 93.1129H100.749C100.749 93.6919 100.981 94.2471 101.394 94.6564C101.806 95.0658 102.366 95.2958 102.949 95.2958V105.212C102.366 105.212 101.806 105.442 101.394 105.851C100.981 106.261 100.749 106.816 100.749 107.395H102.249C102.249 106.816 102.481 106.261 102.894 105.851C103.306 105.442 103.866 105.212 104.449 105.212V95.2958C103.866 95.2958 103.306 95.0658 102.894 94.6564C102.481 94.2471 102.249 93.6919 102.249 93.1129Z" fill="#EEEEEE"/>
<path d="M82.9426 91.0571L81.7636 90.1363L76.0637 85.6833C75.8897 85.5479 75.7491 85.375 75.6526 85.1776C75.5561 84.9803 75.5062 84.7636 75.5067 84.5443C75.5067 84.4916 75.5097 84.4389 75.5157 84.3865C75.5177 84.3647 75.5207 84.3419 75.5247 84.32C75.5512 84.1506 75.6081 83.9873 75.6927 83.8378C75.7905 83.6646 75.9231 83.5132 76.0822 83.3929C76.2414 83.2727 76.4238 83.1861 76.618 83.1387C76.8123 83.0912 77.0143 83.0839 77.2116 83.1171C77.4088 83.1503 77.5971 83.2234 77.7647 83.3318L78.4087 83.7485L80.0717 84.8241L80.9666 85.4045L81.5536 90.1363H84.8836L84.2296 83.7336C84.1417 82.9094 83.8956 82.1095 83.5046 81.3772L83.1776 80.767C83.1716 80.755 83.1656 80.7441 83.1596 80.7322L83.1536 80.7203C82.2396 78.9264 81.3253 77.1322 80.4106 75.3376C80.2524 75.0266 80.0133 74.763 79.7182 74.5741C79.4231 74.3853 79.0825 74.2779 78.7317 74.2631C74.8267 74.526 70.9221 74.7886 67.0178 75.0509L65.6559 75.1431C65.5769 75.1481 65.4969 75.1541 65.4179 75.159C65.1459 75.1511 64.8675 75.1382 64.5829 75.1203C64.3619 75.1064 63.1969 74.9844 62.9839 74.9655L60.5372 83.8443L63.4859 85.8222C63.7891 86.03 64.1199 86.195 64.4689 86.3124L69.3008 87.9465L72.3768 88.9873L73.5238 89.6353L74.8437 90.3814L77.0267 91.6147L77.3867 91.8171L77.4027 91.826L79.7097 93.1298L79.7517 93.1536L81.0306 93.8759C81.2647 94.0083 81.5269 94.0842 81.7959 94.0975C82.065 94.1108 82.3335 94.0611 82.5797 93.9525C82.8258 93.8438 83.0428 93.6793 83.213 93.4721C83.3832 93.2649 83.502 93.0208 83.5596 92.7597C83.6359 92.4085 83.5992 92.0423 83.4546 91.7129C83.3414 91.4556 83.1655 91.2302 82.9426 91.0571Z" fill="#FFCD85"/>
<path d="M76.0637 85.6833C75.8897 85.5479 75.7491 85.375 75.6526 85.1776C75.5561 84.9803 75.5062 84.7636 75.5067 84.5443C75.5067 84.4916 75.5097 84.4389 75.5157 84.3865C75.5177 84.3647 75.5207 84.3419 75.5247 84.32C75.5578 84.1108 75.6368 83.9113 75.7561 83.7356C75.8753 83.5599 76.0319 83.4123 76.2149 83.3032C76.0475 83.2038 75.8617 83.1388 75.6684 83.1119C75.4752 83.085 75.2785 83.0968 75.09 83.1467C74.9015 83.1965 74.7249 83.2834 74.5708 83.4021C74.4167 83.5208 74.2881 83.669 74.1927 83.8378C74.1081 83.9873 74.0512 84.1506 74.0247 84.32C74.0207 84.3419 74.0177 84.3647 74.0157 84.3865C74.0098 84.4389 74.0068 84.4916 74.0067 84.5443C74.0062 84.7636 74.0561 84.9803 74.1526 85.1776C74.2492 85.375 74.3898 85.5479 74.5637 85.6833L80.2636 90.1363H81.7636L76.0637 85.6833ZM78.9107 75.3376C79.8247 77.1315 80.739 78.9258 81.6536 80.7203L81.6596 80.7322C81.6656 80.7441 81.6716 80.755 81.6776 80.767L82.0046 81.3772C82.3956 82.1095 82.6417 82.9094 82.7296 83.7336L83.3836 90.1363H84.8836L84.2296 83.7336C84.1417 82.9094 83.8956 82.1095 83.5046 81.3772L83.1776 80.767C83.1716 80.755 83.1656 80.7441 83.1596 80.7322L83.1536 80.7203C82.2396 78.9264 81.3253 77.1322 80.4106 75.3376C80.2524 75.0266 80.0133 74.763 79.7182 74.5741C79.4231 74.3853 79.0825 74.2779 78.7317 74.2631L77.6764 74.334C77.9412 74.4067 78.1879 74.5336 78.4004 74.7064C78.613 74.8792 78.7868 75.0942 78.9107 75.3376ZM63.0829 75.1203C63.3679 75.1382 63.6462 75.1511 63.9179 75.159C63.9969 75.1541 64.0769 75.1481 64.1559 75.1431L64.5396 75.1171C64.2419 75.0938 63.1859 74.9835 62.984 74.9656L62.9444 75.1091C63.0044 75.1145 63.0529 75.1184 63.0829 75.1203Z" fill="#FFC570"/>
<path d="M82.9426 91.0571L81.7636 90.1363H80.2636L81.4426 91.0571C81.6655 91.2302 81.8414 91.4556 81.9546 91.7129C82.0834 92.004 82.1273 92.3251 82.0815 92.6397C82.0358 92.9543 81.9021 93.2499 81.6956 93.493C81.5399 93.6759 81.347 93.824 81.1294 93.9275C81.3632 94.0405 81.6197 94.0993 81.8797 94.0996C82.1397 94.0998 82.3963 94.0415 82.6303 93.9291C82.8643 93.8167 83.0695 93.653 83.2305 93.4504C83.3914 93.2479 83.504 93.0117 83.5596 92.7597C83.6359 92.4085 83.5992 92.0423 83.4546 91.7129C83.3414 91.4556 83.1655 91.2302 82.9426 91.0571Z" fill="#FFC570"/>
<path d="M57 72.4295L62.6233 73.6407C62.8561 73.6931 63.0584 73.8351 63.1856 74.0354C63.3129 74.2358 63.3548 74.4781 63.302 74.7091L60.8746 85.3342C60.8219 85.5651 60.6788 85.7658 60.4769 85.8921C60.2749 86.0184 60.0307 86.0599 59.798 86.0076L57 85.547" fill="#FF6666"/>
<path d="M62.6233 73.6408L57 72.4296V73.5743L61.1233 74.4625C61.3561 74.5149 61.5584 74.6568 61.6857 74.8572C61.8129 75.0575 61.8548 75.2998 61.802 75.5308L59.4227 85.9459L59.798 86.0076C60.0307 86.0599 60.2749 86.0184 60.4769 85.8921C60.6788 85.7658 60.8219 85.5651 60.8746 85.3342L63.302 74.7091C63.3548 74.4781 63.3129 74.2358 63.1856 74.0355C63.0584 73.8351 62.8561 73.6931 62.6233 73.6408Z" fill="#FF4E4E"/>
<path d="M87.4678 98.6212C87.4678 98.8186 87.5468 99.0079 87.6875 99.1474C87.8281 99.287 88.0189 99.3654 88.2178 99.3654H90.4238C90.2873 99.6219 90.083 99.8366 89.8327 99.9864C89.5825 100.136 89.2958 100.216 89.0035 100.216H88.2177C88.0709 100.216 87.9272 100.259 87.8047 100.339C87.6821 100.419 87.586 100.533 87.5282 100.667C87.4705 100.801 87.4536 100.949 87.4798 101.093C87.506 101.236 87.574 101.369 87.6754 101.474L90.8182 104.739C90.8862 104.81 90.9676 104.866 91.0577 104.906C91.1478 104.945 91.2448 104.967 91.3433 104.969C91.4418 104.971 91.5397 104.954 91.6316 104.919C91.7234 104.883 91.8073 104.831 91.8786 104.763C91.9498 104.696 92.0069 104.615 92.0467 104.525C92.0865 104.436 92.1081 104.34 92.1104 104.242C92.1126 104.144 92.0955 104.047 92.0599 103.956C92.0243 103.865 91.971 103.782 91.903 103.711L89.8573 101.586C90.3818 101.436 90.8575 101.152 91.2367 100.762C91.616 100.372 91.8854 99.8908 92.0183 99.3654H92.5392C92.7382 99.3654 92.9289 99.287 93.0696 99.1474C93.2102 99.0079 93.2892 98.8186 93.2892 98.6212C93.2892 98.4239 93.2102 98.2346 93.0696 98.095C92.9289 97.9555 92.7382 97.8771 92.5392 97.8771H92.0186C91.9435 97.5774 91.8232 97.2908 91.6618 97.0268H92.5391C92.7381 97.0268 92.9288 96.9484 93.0695 96.8088C93.2101 96.6693 93.2891 96.48 93.2891 96.2826C93.2891 96.0853 93.2101 95.896 93.0695 95.7564C92.9288 95.6169 92.7381 95.5385 92.5391 95.5385H88.2178C88.0189 95.5385 87.8281 95.6169 87.6875 95.7564C87.5468 95.896 87.4678 96.0853 87.4678 96.2826C87.4678 96.48 87.5468 96.6693 87.6875 96.8088C87.8281 96.9484 88.0189 97.0268 88.2178 97.0268H89.0035C89.2958 97.0271 89.5824 97.1064 89.8327 97.2562C90.0829 97.406 90.2873 97.6207 90.4238 97.8771H88.2178C88.0189 97.8771 87.8281 97.9555 87.6875 98.095C87.5468 98.2346 87.4678 98.4239 87.4678 98.6212ZM104.449 89.3922H85.5614L84.975 83.6555C84.8783 82.7361 84.6038 81.8438 84.1665 81.0275L83.8399 80.4178L83.8277 80.394L83.8229 80.3846L81.0804 75.0026C80.8619 74.5736 80.5321 74.2101 80.125 73.9495C79.7179 73.6888 79.2482 73.5404 78.7642 73.5196C78.7364 73.5185 78.7086 73.5188 78.6809 73.5206L77.5082 73.5996C73.9942 73.8362 70.4804 74.0725 66.9667 74.3084L65.4039 74.414C65.1458 74.4059 64.8879 74.3938 64.6303 74.3776C64.447 74.3661 64.26 74.3518 64.0636 74.3348C64.0272 73.9974 63.8858 73.6796 63.6591 73.4255C63.4324 73.1715 63.1316 72.9938 62.7984 72.9171L57.9322 71.7076C57.7399 71.6617 57.5372 71.693 57.3681 71.7946C57.199 71.8962 57.0771 72.06 57.0291 72.2503C56.9811 72.4406 57.0107 72.6421 57.1116 72.8108C57.2125 72.9795 57.3764 73.1019 57.5678 73.1513L62.4409 74.3627L62.4574 74.3666C62.4962 74.3754 62.5298 74.3991 62.551 74.4325C62.5722 74.4658 62.5792 74.5062 62.5704 74.5446L60.1432 85.1697C60.1389 85.1887 60.1308 85.2067 60.1194 85.2227C60.1081 85.2386 60.0937 85.2522 60.077 85.2626C60.0604 85.273 60.0418 85.28 60.0224 85.2833C60.003 85.2866 59.9831 85.2861 59.9639 85.2818L57.916 84.8212C57.722 84.7775 57.5185 84.8122 57.3502 84.9174C57.1819 85.0226 57.0627 85.1899 57.0187 85.3824C56.9747 85.5749 57.0096 85.7768 57.1157 85.9438C57.2217 86.1107 57.3903 86.229 57.5843 86.2727L59.6324 86.7333C59.7531 86.7605 59.8765 86.7743 60.0002 86.7743C60.3739 86.7733 60.7362 86.6466 61.0279 86.4149C61.3196 86.1832 61.5235 85.8602 61.6062 85.4987L61.6182 85.446L63.06 86.4346C63.4199 86.6814 63.8127 86.8773 64.227 87.0166L66.2359 87.6962C65.946 87.8917 65.7134 88.1599 65.5617 88.4735C65.41 88.7871 65.3446 89.135 65.3723 89.4818C65.3733 89.5012 65.375 89.521 65.3775 89.541C65.4239 90.0309 65.6529 90.4859 66.0197 90.8171C66.3864 91.1483 66.8645 91.3317 67.3604 91.3316C67.3837 91.3316 67.4074 91.3312 67.4308 91.3303C67.8687 91.3153 68.3067 91.3001 68.7448 91.2848C68.5658 91.6548 68.501 92.069 68.5585 92.4754C68.6161 92.8818 68.7934 93.2623 69.0682 93.569C69.343 93.8758 69.703 94.0951 70.1031 94.1994C70.5031 94.3037 70.9253 94.2884 71.3166 94.1553L72.5579 93.7341V107.395C72.559 108.381 72.9544 109.327 73.6574 110.024C74.3604 110.722 75.3136 111.114 76.3078 111.115H104.449C105.443 111.114 106.397 110.722 107.1 110.024C107.803 109.327 108.198 108.381 108.199 107.395V93.1129C108.198 92.1265 107.803 91.1807 107.1 90.4832C106.397 89.7856 105.443 89.3933 104.449 89.3922ZM67.3787 89.843C67.2524 89.847 67.1294 89.8029 67.0348 89.7197C66.9403 89.6366 66.8814 89.5206 66.8702 89.3957C66.8697 89.39 66.8691 89.3843 66.8684 89.3786C66.8684 89.3769 66.8682 89.3751 66.868 89.3733C66.8576 89.2576 66.8891 89.142 66.9569 89.0473C67.0246 88.9525 67.1242 88.8848 67.2377 88.8564C67.3744 88.8221 67.6239 88.744 68.0187 88.6192C68.1806 88.5679 68.3665 88.5092 68.5097 88.4654L71.0897 89.3381L70.5131 89.7344C69.4679 89.7711 68.4231 89.8073 67.3787 89.843ZM72.6953 92.1146L70.8293 92.7478C70.7505 92.7744 70.6669 92.7845 70.584 92.7773C70.5011 92.7701 70.4205 92.7459 70.3476 92.7061C70.2746 92.6664 70.2108 92.612 70.1601 92.5464C70.1095 92.4808 70.0732 92.4055 70.0536 92.3252C70.0251 92.2059 70.0341 92.0807 70.0794 91.9666C70.1247 91.8524 70.204 91.7548 70.3069 91.6867L71.0932 91.1462C71.1718 91.1101 71.2435 91.0608 71.3052 91.0004L72.7124 90.0331L73.6037 90.5368C73.1736 90.9797 72.8614 91.522 72.6953 92.1146ZM72.7478 88.3406C72.7067 88.3175 72.6635 88.2982 72.6188 88.2831L68.7854 86.9863L68.7745 86.9826L64.7091 85.6074C64.4262 85.5123 64.158 85.3785 63.9123 85.21L62.1743 84.0184C62.1108 83.9749 62.0409 83.9413 61.967 83.919L63.8205 75.8057C63.8355 75.8079 63.8501 75.8106 63.8653 75.8119C64.3744 75.8573 64.8848 75.8876 65.3958 75.9029C65.4186 75.9036 65.4423 75.9032 65.4655 75.9017L67.0684 75.7933C70.5825 75.5576 74.0963 75.3213 77.6097 75.0845L78.7359 75.0086C78.947 75.0239 79.1506 75.0931 79.3268 75.2096C79.503 75.3261 79.6458 75.4859 79.7413 75.6734L82.4839 81.0552L82.5079 81.1019L82.5153 81.1162L82.8416 81.7254C83.1882 82.3725 83.406 83.0797 83.4829 83.8085L84.0536 89.3922H82.2174L81.7109 85.3135C81.6976 85.206 81.6607 85.1027 81.603 85.0107C81.5452 84.9188 81.4679 84.8405 81.3764 84.7813L80.4954 84.2108C80.4904 84.2076 80.4861 84.2038 80.4811 84.2007L78.174 82.7082C77.9203 82.5442 77.6355 82.4337 77.337 82.3835C77.0386 82.3332 76.733 82.3443 76.439 82.4161C76.1451 82.4878 75.8691 82.6187 75.6282 82.8006C75.3874 82.9825 75.1867 83.2116 75.0387 83.4736C74.9116 83.698 74.8257 83.943 74.7849 84.1972C74.7784 84.2346 74.7732 84.2733 74.7696 84.3108C74.761 84.3883 74.7567 84.4663 74.7567 84.5443C74.7552 84.8764 74.8305 85.2044 74.9766 85.5032C75.1227 85.802 75.3359 86.0636 75.5997 86.268L81.286 90.7101L81.288 90.7117L82.4785 91.6417C82.6046 91.739 82.7041 91.8662 82.7677 92.0116C82.8486 92.1968 82.8693 92.4025 82.827 92.6C82.8107 92.6736 82.7857 92.7451 82.7525 92.8129C82.751 92.8165 82.749 92.8198 82.7475 92.8235C82.6673 92.9837 82.5435 93.1184 82.3901 93.2124C82.2367 93.3063 82.0598 93.3558 81.8795 93.355C81.7118 93.3554 81.547 93.3121 81.4015 93.2292L72.7478 88.3406ZM83.7704 93.9709C83.8018 93.9336 83.832 93.8957 83.8609 93.8571H101.596C101.73 94.3581 101.995 94.8151 102.364 95.1816C102.734 95.5481 103.194 95.8112 103.699 95.944V104.563C103.194 104.696 102.734 104.959 102.364 105.326C101.995 105.692 101.73 106.149 101.596 106.651H79.1611C79.0272 106.149 78.7621 105.692 78.3927 105.326C78.0233 104.959 77.5627 104.696 77.0577 104.564V95.944C77.5627 95.8112 78.0233 95.5481 78.3927 95.1816C78.7621 94.815 79.0272 94.358 79.1611 93.857H79.4814L80.6596 94.5226C81.1614 94.8058 81.7473 94.9057 82.3156 94.805C82.8838 94.7042 83.3986 94.4091 83.7704 93.9709ZM80.5646 88.2523L76.5257 85.0971C76.4413 85.0315 76.3731 84.9475 76.3265 84.8517C76.2799 84.7559 76.256 84.6507 76.2567 84.5443C76.2567 84.5198 76.258 84.4954 76.2608 84.471C76.2616 84.4648 76.262 84.4597 76.2626 84.4535L76.2658 84.4344C76.2785 84.3525 76.3061 84.2735 76.3471 84.2013C76.3947 84.117 76.4592 84.0434 76.5366 83.9849C76.614 83.9264 76.7027 83.8843 76.7972 83.8612C76.8917 83.8381 76.99 83.8345 77.0859 83.8507C77.1818 83.8668 77.2734 83.9023 77.355 83.955L77.996 84.3697L77.9988 84.3717L80.2648 85.8387L80.5646 88.2523ZM106.699 107.395C106.699 107.987 106.461 108.554 106.039 108.973C105.618 109.391 105.046 109.626 104.449 109.627H76.3077C75.7112 109.626 75.1393 109.391 74.7175 108.973C74.2957 108.554 74.0584 107.987 74.0577 107.395V93.1129C74.0583 92.7623 74.1419 92.4168 74.3017 92.1042C74.4616 91.7915 74.6933 91.5205 74.9781 91.3131L77.789 92.9009C77.7683 92.9697 77.7577 93.0411 77.7577 93.1128C77.7572 93.4943 77.6043 93.8599 77.3325 94.1296C77.0607 94.3994 76.6921 94.5511 76.3077 94.5515C76.1088 94.5515 75.918 94.6299 75.7774 94.7695C75.6367 94.909 75.5577 95.0983 75.5577 95.2957V105.212C75.5577 105.409 75.6367 105.598 75.7774 105.738C75.918 105.877 76.1088 105.956 76.3077 105.956C76.6921 105.956 77.0607 106.108 77.3325 106.378C77.6043 106.647 77.7572 107.013 77.7577 107.395C77.7577 107.592 77.8367 107.781 77.9773 107.921C78.118 108.06 78.3088 108.139 78.5077 108.139H102.249C102.448 108.139 102.639 108.06 102.78 107.921C102.92 107.781 102.999 107.592 102.999 107.395C103 107.013 103.153 106.647 103.424 106.378C103.696 106.108 104.065 105.956 104.449 105.956C104.648 105.956 104.839 105.877 104.98 105.738C105.12 105.598 105.199 105.409 105.199 105.212V95.2957C105.199 95.0983 105.12 94.909 104.98 94.7695C104.839 94.6299 104.648 94.5515 104.449 94.5515C104.065 94.5511 103.696 94.3994 103.424 94.1296C103.153 93.8599 103 93.4943 102.999 93.1128C102.999 92.9155 102.92 92.7262 102.78 92.5866C102.639 92.4471 102.448 92.3687 102.249 92.3687H84.3468C84.3434 92.0409 84.2739 91.7172 84.1425 91.4165C84.0581 91.2246 83.9489 91.0443 83.8177 90.8804H104.449C105.046 90.8811 105.618 91.1165 106.039 91.535C106.461 91.9535 106.699 92.521 106.699 93.1128V107.395Z" fill="#272A33"/>
</g>
<path d="M190.172 83.6899L212.976 63.1024L223.341 71.3378L244.068 52.8087" stroke="#25B39E" stroke-width="1.96429"/>
<path d="M240.124 52.8067H244.068V56.72" stroke="#25B39E" stroke-width="1.96429"/>
<path d="M239.797 91.937H243.741V88.0238" stroke="#F05542" stroke-width="1.96429"/>
<path d="M190.498 55.7397L215.147 79.219L221.063 73.3492L228.951 81.1756L230.923 79.219L242.755 90.9587" stroke="#F05542" stroke-width="1.96429"/>
<path d="M190.498 44V98.7793M244.727 97.8068H189.512" stroke="#2B4255" stroke-width="1.96429"/>
<path d="M201.806 85.462V138.081C201.806 139.6 201.197 141.057 200.115 142.131C199.032 143.205 197.564 143.809 196.033 143.809H166.09L169.027 156.337H177.274C178.039 156.337 178.773 156.639 179.314 157.176C179.856 157.713 180.16 158.441 180.16 159.201C180.16 159.96 179.856 160.688 179.314 161.225C178.773 161.763 178.039 162.064 177.274 162.064H142.641C141.875 162.064 141.141 161.763 140.6 161.225C140.059 160.688 139.754 159.96 139.754 159.201C139.754 158.441 140.059 157.713 140.6 157.176C141.141 156.639 141.875 156.337 142.641 156.337H150.888L153.824 143.809H123.881C122.35 143.809 120.882 143.205 119.799 142.131C118.717 141.057 118.109 139.6 118.109 138.081V85.462C118.109 83.943 118.717 82.4863 119.799 81.4122C120.882 80.3381 122.35 79.7347 123.881 79.7347H196.033C197.564 79.7347 199.032 80.3381 200.115 81.4122C201.197 82.4863 201.806 83.943 201.806 85.462Z" fill="#EDEDED"/>
<path d="M201.806 129.043V138.081C201.806 139.6 201.197 141.057 200.115 142.131C199.032 143.205 197.564 143.809 196.033 143.809H123.881C122.35 143.809 120.882 143.205 119.799 142.131C118.717 141.057 118.109 139.6 118.109 138.081V129.043H201.806Z" fill="#F7F7F7"/>
<path d="M201.806 85.462V129.043H118.109V85.462C118.109 83.943 118.717 82.4863 119.799 81.4122C120.882 80.3381 122.35 79.7347 123.881 79.7347H196.033C197.564 79.7347 199.032 80.3381 200.115 81.4122C201.197 82.4863 201.806 83.943 201.806 85.462Z" fill="#AEFCFE"/>
<path d="M201.806 85.462V95.1268L118.109 125.732V85.462C118.109 83.943 118.717 82.4863 119.799 81.4122C120.882 80.3381 122.35 79.7347 123.881 79.7347H196.033C197.564 79.7347 199.032 80.3381 200.115 81.4122C201.197 82.4863 201.806 83.943 201.806 85.462Z" fill="#CCFEFF"/>
<path d="M196.033 76.8711H123.881C121.585 76.8735 119.384 77.7793 117.761 79.3899C116.138 81.0005 115.225 83.1843 115.223 85.462V138.081C115.225 140.359 116.138 142.543 117.761 144.153C119.384 145.764 121.585 146.67 123.881 146.672H150.19L147.924 156.337H142.641C141.875 156.337 141.141 156.639 140.6 157.176C140.059 157.713 139.754 158.441 139.754 159.201C139.754 159.96 140.059 160.688 140.6 161.225C141.141 161.763 141.875 162.064 142.641 162.064H177.274C178.039 162.064 178.773 161.763 179.314 161.225C179.856 160.688 180.16 159.96 180.16 159.201C180.16 158.441 179.856 157.713 179.314 157.176C178.773 156.639 178.039 156.337 177.274 156.337H171.99L169.725 146.672H196.033C198.329 146.67 200.53 145.764 202.153 144.153C203.776 142.543 204.689 140.359 204.692 138.081V85.462C204.689 83.1843 203.776 81.0005 202.153 79.3899C200.53 77.7793 198.329 76.8735 196.033 76.8711ZM166.063 156.337H153.851L156.117 146.672H163.797L166.063 156.337ZM198.919 138.081C198.919 138.841 198.615 139.569 198.074 140.106C197.533 140.643 196.799 140.945 196.033 140.945H123.881C123.116 140.945 122.381 140.643 121.84 140.106C121.299 139.569 120.995 138.841 120.995 138.081V131.996H183.767C184.533 131.996 185.267 131.694 185.808 131.157C186.349 130.62 186.654 129.892 186.654 129.132C186.654 128.373 186.349 127.645 185.808 127.108C185.267 126.57 184.533 126.269 183.767 126.269H120.995V85.462C120.995 84.7025 121.299 83.9741 121.84 83.4371C122.381 82.9001 123.116 82.5984 123.881 82.5984H196.033C196.799 82.5984 197.533 82.9001 198.074 83.4371C198.615 83.9741 198.919 84.7025 198.919 85.462V138.081Z" fill="#4C3546"/>
<path d="M190.387 127.543C190.017 128.094 189.851 128.755 189.917 129.414C189.982 130.073 190.276 130.689 190.748 131.157C192.611 133.056 195.92 131.547 195.66 128.851C195.4 126.156 191.868 125.315 190.387 127.543Z" fill="#4C3546"/>
<defs>
<clipPath id="clip0_1_2">
<rect width="51.1992" height="50.8008" fill="white" transform="translate(57 66)"/>
</clipPath>
</defs>
</svg>
